<?xml version="1.0" standalone="no"?>
<!DOCTYPE svg PUBLIC "-//W3C//DTD SVG 20010904//EN"
 "http://www.w3.org/TR/2001/REC-SVG-20010904/DTD/svg10.dtd">
<svg version="1.0" xmlns="http://www.w3.org/2000/svg"
 width="1024.000000pt" height="1024.000000pt" viewBox="0 0 1024.000000 1024.000000"
 preserveAspectRatio="xMidYMid meet">

<g transform="translate(0.000000,1024.000000) scale(0.100000,-0.100000)"
fill="#000000" stroke="none">
<path d="M0 5120 l0 -5120 5120 0 5120 0 0 5120 0 5120 -5120 0 -5120 0 0
-5120z m5246 3751 c56 -26 86 -71 93 -142 l6 -58 308 -310 c169 -171 307 -312
307 -315 0 -2 -19 -24 -42 -50 l-43 -46 -305 316 c-280 289 -307 314 -330 307
-32 -9 -98 -9 -130 0 -23 7 -75 -42 -635 -605 l-611 -613 -44 48 -44 48 616
616 616 615 4 53 c3 33 13 64 28 85 26 36 90 70 135 70 17 0 48 -9 71 -19z
m515 -1006 c201 -209 445 -464 543 -568 201 -211 192 -189 105 -257 l-35 -29
-144 152 c-79 84 -247 260 -374 392 -127 132 -276 287 -331 345 -55 58 -157
163 -228 235 l-127 130 -57 -60 c-31 -33 -113 -118 -182 -190 -70 -71 -264
-274 -431 -450 -167 -176 -343 -360 -391 -410 -138 -144 -577 -611 -799 -850
-169 -183 -358 -384 -667 -714 l-43 -46 0 108 0 108 113 122 c257 279 704 755
1077 1147 97 102 248 262 335 355 180 192 228 242 698 728 185 191 337 353
337 360 0 14 117 -103 601 -608z m1299 280 l-190 -190 -50 50 -50 49 187 191
188 190 53 -50 52 -50 -190 -190z m-1805 -85 c122 -132 283 -303 505 -535 274
-287 545 -583 545 -595 0 -14 -86 -101 -95 -95 -5 3 -105 108 -221 233 -117
125 -322 342 -454 482 -133 140 -268 283 -300 318 -31 34 -60 62 -64 62 -3 -1
-18 -16 -32 -35 -14 -19 -84 -96 -156 -172 -295 -314 -1045 -1117 -1143 -1223
-58 -63 -163 -178 -235 -255 -71 -77 -175 -190 -230 -250 -169 -184 -542 -584
-662 -707 l-113 -118 0 103 0 103 72 80 c72 79 332 357 458 489 59 63 506 549
684 744 38 42 138 148 221 236 84 88 190 200 236 250 46 49 154 164 239 255
85 91 243 260 351 375 108 116 223 240 255 277 32 37 58 67 59 65 1 -1 37 -40
80 -87z m120 -507 c66 -70 145 -156 175 -189 122 -133 488 -532 530 -577 l45
-48 -40 -42 -40 -42 -416 475 c-402 459 -456 518 -462 509 -2 -2 -59 -67 -128
-144 -137 -155 -348 -397 -449 -515 -35 -41 -116 -133 -180 -204 -63 -71 -243
-281 -400 -465 -157 -185 -332 -390 -390 -457 -58 -66 -181 -209 -275 -317
l-170 -197 -62 62 -63 62 73 76 c74 76 228 242 412 445 55 61 122 135 150 165
27 30 77 84 110 120 33 36 96 103 140 150 80 85 230 248 360 390 37 41 103
111 145 155 94 98 371 400 580 633 l155 173 40 -44 c22 -25 94 -103 160 -174z
m-2302 142 c46 -32 67 -71 67 -127 0 -58 -30 -104 -83 -128 -53 -24 -81 -25
-133 -1 -31 14 -47 30 -63 63 -27 56 -27 83 2 138 40 79 136 104 210 55z
m4242 -18 c22 -13 49 -40 62 -62 80 -142 -67 -304 -219 -241 l-35 15 -371
-372 -371 -372 -46 49 -45 49 62 66 c35 36 208 212 385 391 178 179 323 333
323 342 0 50 51 120 105 144 45 20 105 17 150 -9z m-2064 -229 c65 -72 418
-475 519 -594 19 -22 76 -88 127 -146 l92 -105 -54 -59 c-47 -51 -56 -57 -68
-44 -7 8 -65 76 -128 150 -63 74 -204 240 -314 369 -110 129 -210 246 -222
260 l-21 26 -22 -20 c-13 -11 -69 -76 -125 -145 -57 -69 -166 -199 -242 -290
-131 -157 -233 -280 -565 -682 -79 -95 -235 -284 -348 -419 -314 -377 -341
-411 -338 -419 4 -10 178 -174 346 -324 67 -61 123 -115 126 -121 4 -13 -92
-117 -104 -113 -16 6 -502 456 -568 526 -18 20 -29 38 -24 41 10 6 186 216
586 696 633 761 862 1033 1039 1237 106 121 198 228 206 239 7 10 16 19 20 19
4 0 41 -37 82 -82z m82 -797 c79 -80 168 -172 198 -205 30 -32 69 -74 87 -92
l34 -34 -47 -52 c-26 -29 -50 -53 -54 -53 -4 0 -90 87 -191 193 l-185 192
-110 -112 c-61 -62 -133 -138 -160 -168 -83 -90 -705 -762 -747 -806 l-39 -41
93 -90 c51 -50 112 -108 135 -128 24 -21 40 -42 36 -49 -3 -6 -2 -8 2 -3 5 4
37 -21 71 -55 l63 -63 -22 -24 -22 -25 27 17 c38 24 45 21 20 -6 -12 -13 -19
-27 -15 -30 3 -4 -1 -7 -10 -7 -16 0 -21 -11 -18 -37 2 -16 84 -98 94 -95 5 1
6 -2 2 -8 -4 -6 -44 23 -96 71 -49 44 -86 86 -82 92 3 5 1 7 -4 4 -6 -4 -24 5
-41 21 -16 15 -74 68 -128 117 -114 105 -111 102 -195 180 -35 33 -77 70 -92
82 -27 21 -28 22 -10 41 10 10 34 36 53 58 19 22 64 71 100 110 36 38 103 112
150 164 114 127 351 381 475 510 94 98 263 280 400 430 43 48 64 64 73 57 7
-6 77 -76 155 -156z m1488 102 c36 -38 175 -187 309 -333 134 -146 276 -299
315 -340 136 -144 250 -265 284 -299 l33 -34 -1 -96 c-1 -52 -3 -96 -4 -97 -6
-7 -266 261 -488 501 -30 33 -120 130 -200 215 -185 199 -337 365 -378 412
l-33 37 44 51 c24 27 46 50 49 50 3 0 34 -30 70 -67z m-533 -178 c0 -5 -129
-136 -284 -289 l-283 -280 -41 44 -40 43 259 261 c143 144 270 274 282 289
l22 29 43 -43 c24 -24 43 -48 42 -54z m404 -57 c238 -254 447 -492 441 -501
-3 -6 -2 -7 4 -4 14 9 76 -60 67 -74 -4 -7 -3 -9 3 -6 12 8 159 -151 157 -170
-1 -7 2 -10 8 -7 10 6 55 -46 50 -59 -1 -5 1 -6 6 -3 12 7 134 -124 129 -138
-3 -6 -10 -10 -16 -9 -16 4 -14 -2 6 -18 10 -8 14 -9 10 -2 -4 6 -2 15 4 18
14 10 91 -66 84 -83 -2 -7 -1 -11 4 -8 11 7 63 -33 56 -43 -2 -5 3 -15 13 -24
10 -9 17 -27 16 -39 -3 -43 -17 -88 -26 -88 -5 0 -7 4 -4 9 9 14 -4 41 -20 41
-17 0 -18 -12 -1 -29 10 -11 10 -13 0 -7 -25 14 -13 -12 13 -29 14 -9 24 -19
21 -22 -8 -7 -39 22 -179 170 -98 104 -128 141 -119 150 6 6 11 15 11 21 0 5
-6 1 -14 -10 -15 -19 -15 -19 -37 3 -13 12 -20 25 -17 28 3 3 13 -1 22 -10 9
-9 16 -12 16 -6 0 9 -20 24 -45 33 -5 1 -9 7 -7 13 2 5 0 7 -4 3 -9 -10 -35
12 -28 23 3 5 0 8 -8 7 -7 -2 -12 3 -10 10 1 8 -1 11 -6 8 -5 -3 -39 28 -76
69 -63 70 -80 95 -54 79 7 -4 8 -3 4 5 -4 6 -11 9 -15 6 -12 -7 -324 328 -589
633 l-82 95 42 44 c24 23 46 43 49 43 4 0 58 -55 121 -122z m-7 -368 c224
-254 322 -367 528 -608 34 -39 63 -76 65 -82 2 -5 -23 -34 -54 -63 l-58 -54
-66 77 c-36 43 -135 158 -220 256 -298 345 -576 670 -583 681 -4 7 15 35 45
68 l53 56 20 -24 c11 -14 133 -152 270 -307z m-1277 38 c132 -145 257 -281
278 -303 33 -34 204 -220 254 -275 8 -10 42 -45 75 -79 l60 -62 -25 -21 c-14
-11 -54 -48 -90 -81 -37 -34 -114 -107 -174 -162 -59 -55 -126 -117 -148 -138
-22 -20 -44 -34 -49 -31 -5 3 -9 2 -8 -3 4 -15 -13 -43 -23 -37 -5 3 -5 11 2
19 16 20 -5 28 -24 9 -16 -16 -12 -39 5 -29 15 10 10 -7 -7 -26 -9 -10 -23
-15 -32 -12 -10 4 -14 2 -9 -2 9 -11 -52 -75 -71 -75 -7 0 -11 -4 -7 -9 3 -5
1 -12 -4 -15 -5 -4 -12 -2 -16 4 -3 5 -11 10 -18 10 -8 0 -8 -3 1 -12 14 -14
16 -32 3 -24 -5 4 -11 0 -14 -6 -3 -7 -4 1 -3 17 1 23 6 30 21 30 15 0 21 8
23 30 l2 30 -33 -37 c-37 -41 -67 -50 -64 -19 1 13 7 17 20 13 16 -4 18 -1 12
18 -5 16 -4 20 5 15 14 -9 52 24 44 37 -4 6 3 8 17 3 19 -5 21 -4 9 4 -13 10
-13 12 0 21 8 5 11 10 6 10 -5 0 -24 -11 -42 -25 -35 -27 -49 -32 -38 -13 5 8
1 9 -12 5 -16 -6 -17 -5 -4 6 8 7 21 19 28 27 11 13 12 12 6 -4 -7 -19 -5 -18
24 2 41 30 55 52 17 28 -22 -13 -17 -5 17 28 26 25 53 46 61 46 8 0 22 10 33
23 l19 22 -25 -19 c-14 -11 -1 4 27 33 29 29 57 50 63 46 5 -3 7 0 4 8 -6 17
49 61 61 49 5 -4 5 -2 2 4 -3 6 41 55 99 110 57 54 103 104 102 110 -3 10
-182 207 -408 449 -47 50 -128 138 -180 195 -52 58 -100 105 -106 105 -6 0
-90 -85 -186 -190 -96 -104 -248 -269 -337 -365 -90 -96 -165 -180 -167 -186
-5 -10 48 -64 200 -205 32 -30 70 -65 85 -79 15 -14 48 -44 75 -67 30 -26 45
-47 40 -54 -4 -8 -3 -9 5 -5 6 4 18 2 27 -4 11 -10 12 -16 2 -28 -11 -13 -10
-14 8 -8 24 7 50 -16 38 -35 -4 -8 -3 -9 5 -5 6 4 22 1 35 -7 31 -21 116 -123
90 -109 -28 15 -47 1 -39 -30 5 -20 2 -26 -14 -31 -18 -4 -19 -2 -11 13 6 11
11 32 12 47 1 15 6 33 10 40 6 7 4 14 -3 19 -7 4 -9 3 -5 -4 3 -6 -3 -14 -15
-17 -15 -5 -18 -10 -10 -18 15 -15 14 -24 -5 -31 -24 -9 -66 4 -60 20 3 8 0
11 -10 7 -7 -3 -14 0 -14 6 0 6 5 11 12 11 6 0 9 2 6 5 -3 3 -18 1 -33 -5 -25
-10 -34 -4 -168 117 -78 69 -217 196 -309 282 l-167 155 142 151 c78 82 164
175 191 205 28 30 100 108 160 174 61 65 120 129 131 142 60 68 270 304 271
304 1 0 110 -118 242 -262z m856 54 c26 -31 161 -192 300 -356 236 -282 335
-398 433 -513 l42 -49 -102 -100 c-105 -103 -300 -286 -512 -479 -66 -60 -158
-145 -205 -190 -47 -44 -179 -167 -293 -274 l-209 -194 -58 59 -58 59 122 114
c312 292 776 720 927 856 92 83 168 153 168 156 1 3 -52 68 -116 145 -65 76
-227 269 -360 429 l-242 290 51 52 c29 29 55 53 58 52 3 0 27 -26 54 -57z
m-177 -412 c306 -321 366 -391 325 -382 -8 1 -11 -2 -8 -7 7 -10 -82 -87 -96
-83 -5 1 -7 -1 -4 -6 3 -5 -13 -26 -34 -47 -22 -22 -40 -36 -40 -31 0 4 -7 0
-16 -9 -15 -15 -18 -15 -38 2 -21 18 -21 18 -3 -4 19 -22 19 -22 -29 -72 -26
-27 -58 -52 -71 -56 -13 -3 -21 -10 -18 -15 3 -6 -2 -10 -11 -10 -10 0 -14 -3
-11 -7 9 -8 -22 -43 -37 -43 -6 0 -16 -10 -21 -22 -6 -13 -18 -22 -28 -21 -12
0 -16 -4 -13 -13 3 -8 1 -14 -4 -14 -5 0 -16 -7 -24 -16 -14 -13 -16 -14 -16
0 0 8 5 18 10 21 6 3 10 11 10 17 0 7 -5 6 -15 -2 -11 -10 -18 -9 -30 3 -20
21 -19 37 3 37 9 0 23 9 30 21 11 16 16 18 28 9 16 -14 19 -30 5 -30 -5 0 -12
8 -14 18 -4 14 -5 14 -6 -3 -1 -25 37 -51 52 -36 8 8 8 11 -1 11 -7 0 -12 7
-12 15 0 8 5 15 10 15 6 0 10 5 10 10 0 6 -9 10 -21 10 -12 0 -23 8 -26 19 -3
13 -11 18 -21 14 -13 -4 -14 -3 -4 5 7 5 24 7 37 4 13 -2 34 3 47 12 17 12 19
16 6 16 -9 0 -20 -5 -23 -10 -4 -6 -11 -7 -17 -4 -7 4 -5 10 6 16 9 5 16 16
16 23 0 16 15 20 23 8 2 -5 2 -3 1 4 -2 6 3 17 11 23 8 6 11 18 8 27 -5 12 -1
14 15 9 15 -5 24 -1 32 14 6 11 16 17 22 14 7 -4 8 -3 4 5 -4 6 -12 9 -17 6
-14 -9 -11 2 5 17 7 7 45 43 83 79 46 44 67 71 64 82 -3 8 -71 84 -152 168
-184 195 -239 255 -239 261 0 9 85 96 92 95 4 -1 78 -76 165 -167z m-823 -168
c95 -86 34 -242 -95 -242 -82 0 -139 61 -139 149 0 82 91 141 180 118 19 -5
43 -16 54 -25z m-2176 -416 c122 -109 484 -430 624 -552 37 -33 67 -61 67 -64
1 -9 -107 -120 -116 -120 -4 1 -28 19 -53 41 -25 22 -202 176 -395 341 -192
165 -359 309 -370 319 -19 19 -19 20 45 84 35 36 66 65 68 65 2 0 61 -51 130
-114z m4367 49 l70 -64 -35 -33 c-54 -49 -545 -476 -694 -603 -71 -60 -204
-175 -295 -255 -91 -80 -211 -183 -266 -230 -55 -46 -158 -136 -230 -200 -71
-64 -170 -150 -220 -192 -49 -42 -104 -89 -121 -105 -17 -15 -57 -50 -89 -78
-78 -67 -75 -64 -129 -115 -26 -25 -44 -37 -40 -27 4 13 2 16 -9 11 -19 -7
-33 14 -18 29 16 16 14 24 -9 30 -15 4 -18 10 -13 24 7 17 6 17 -11 1 -9 -10
-22 -18 -27 -18 -5 0 -9 -5 -9 -11 0 -6 7 -8 16 -5 14 5 15 4 5 -8 -9 -11 -8
-15 4 -20 9 -3 13 -2 10 3 -3 5 -1 12 3 15 5 3 9 -3 8 -14 -2 -31 -12 -28 -48
11 l-33 36 95 86 c52 47 115 105 140 128 25 24 133 119 240 213 107 94 240
211 295 261 117 105 269 240 835 740 353 314 472 422 483 441 4 8 11 14 15 14
4 0 39 -29 77 -65z m-1405 -19 c0 -3 -4 -8 -10 -11 -5 -3 -10 -1 -10 4 0 6 5
11 10 11 6 0 10 -2 10 -4z m1695 -86 c10 -11 16 -20 13 -20 -3 0 -13 9 -23 20
-10 11 -16 20 -13 20 3 0 13 -9 23 -20z m-4920 -142 c60 -51 163 -140 230
-197 66 -57 209 -180 318 -273 108 -93 197 -173 197 -176 0 -4 -24 -30 -52
-59 l-53 -51 -80 70 c-44 39 -136 118 -205 177 -225 191 -559 482 -566 493 -6
9 82 108 96 108 3 0 55 -42 115 -92z m4865 39 c28 -27 50 -52 48 -56 -3 -8
-553 -492 -653 -576 -33 -27 -78 -65 -100 -85 -22 -19 -69 -60 -104 -90 -36
-30 -69 -60 -75 -65 -6 -6 -27 -23 -46 -39 -19 -16 -66 -57 -105 -91 -110 -98
-132 -115 -139 -107 -4 4 -6 1 -4 -7 2 -8 -7 -20 -19 -26 -12 -6 -32 -24 -44
-39 -12 -15 -28 -25 -35 -22 -8 3 -13 2 -11 -2 1 -4 -20 -27 -48 -52 -27 -25
-44 -37 -36 -27 12 15 11 17 -2 17 -9 0 -19 4 -22 10 -3 6 1 7 9 4 16 -6 21 5
17 35 -2 7 2 11 7 8 4 -4 16 3 25 14 9 10 13 19 7 19 -5 0 -12 -4 -15 -10 -10
-16 -26 -11 -23 7 2 13 -5 17 -32 18 -19 1 -42 -3 -50 -9 -8 -6 -1 5 15 23 34
38 65 57 65 41 0 -5 -7 -10 -15 -10 -8 0 -15 -4 -15 -10 0 -5 6 -10 13 -10 8
0 7 -4 -3 -10 -9 -6 -10 -10 -3 -10 15 0 25 16 32 53 4 17 13 33 20 35 8 3 11
0 7 -7 -11 -17 10 -13 24 4 11 13 10 14 -4 9 -9 -3 -16 -1 -16 5 0 6 4 11 9
11 5 0 29 19 53 43 25 23 55 51 69 62 13 10 54 46 90 80 36 33 110 98 165 145
54 48 194 167 309 267 116 100 291 253 390 342 99 88 183 159 187 158 3 -1 29
-24 58 -50z m-3116 -58 c-3 -5 1 -9 9 -9 8 0 21 -7 28 -16 12 -14 9 -20 -16
-40 -31 -25 -51 -32 -40 -14 3 6 -1 7 -9 4 -11 -4 -16 0 -16 15 0 12 2 21 4
21 2 0 12 3 22 7 13 5 16 3 11 -10 -3 -9 -1 -19 5 -23 6 -4 8 -3 5 3 -4 6 1
10 10 9 9 0 18 5 20 12 3 7 -1 10 -10 6 -16 -6 -42 28 -30 40 3 3 -1 6 -11 6
-9 0 -14 5 -11 10 5 8 11 7 21 -1 7 -6 11 -15 8 -20z m986 -3 c0 -2 -8 -10
-17 -17 -16 -13 -17 -12 -4 4 13 16 21 21 21 13z m310 -52 c0 -21 -17 -17 -23
5 -3 14 -1 18 9 14 8 -3 14 -11 14 -19z m-1199 -31 c21 -23 24 -30 9 -18 -14
11 -29 26 -33 33 -5 7 -13 9 -19 6 -7 -4 -8 -2 -4 4 10 16 7 17 47 -25z m1180
-25 c-17 -15 -37 -28 -44 -28 -7 1 -5 6 6 14 24 18 21 29 -5 21 -16 -5 -20 -4
-13 3 10 11 37 17 69 18 14 0 12 -6 -13 -28z m-1306 12 c3 -5 1 -10 -4 -10 -6
0 -11 5 -11 10 0 6 2 10 4 10 3 0 8 -4 11 -10z m391 -44 c9 -15 21 -22 30 -19
9 3 14 -1 14 -12 0 -21 48 -61 70 -58 9 2 10 0 3 -3 -19 -8 -16 -22 5 -28 10
-4 29 -21 42 -39 23 -31 23 -31 -21 7 -62 55 -179 167 -179 172 0 13 22 0 36
-20z m-266 -3 c0 -3 -7 -3 -14 0 -9 4 -17 -2 -21 -14 -4 -11 -9 -18 -12 -16
-10 11 18 46 32 41 8 -4 15 -8 15 -11z m1125 -11 c-3 -3 -11 0 -18 7 -9 10 -8
11 6 5 10 -3 15 -9 12 -12z m-1040 -2 c3 -6 -1 -7 -9 -4 -18 7 -21 14 -7 14 6
0 13 -4 16 -10z m388 -8 c15 -16 15 -18 -1 -18 -10 0 -18 8 -18 18 0 10 1 18
2 18 0 0 8 -8 17 -18z m-113 -2 c0 -5 -4 -10 -10 -10 -5 0 -10 5 -10 10 0 6 5
10 10 10 6 0 10 -4 10 -10z m715 0 c3 -5 1 -10 -4 -10 -6 0 -11 5 -11 10 0 6
2 10 4 10 3 0 8 -4 11 -10z m-1124 -25 c11 6 12 5 2 -5 -10 -11 -15 -11 -28 0
-8 7 -15 17 -15 23 0 6 6 3 13 -8 9 -11 19 -15 28 -10z m1159 21 c0 -3 -4 -8
-10 -11 -5 -3 -10 -1 -10 4 0 6 5 11 10 11 6 0 10 -2 10 -4z m-643 -48 c-3 -8
-6 -5 -6 6 -1 11 2 17 5 13 3 -3 4 -12 1 -19z m-502 3 c-3 -5 4 -13 16 -16 11
-4 18 -9 16 -12 -9 -8 -48 18 -42 28 4 5 8 9 11 9 3 0 3 -4 -1 -9z m620 -11
c-3 -5 -14 -10 -23 -9 -14 0 -13 2 3 9 27 11 27 11 20 0z m465 -4 c0 -2 -7 -7
-16 -10 -8 -3 -12 -2 -9 4 6 10 25 14 25 6z m-1019 -23 c13 -16 12 -17 -3 -4
-17 13 -22 21 -14 21 2 0 10 -8 17 -17z m619 4 c0 -2 -9 -12 -19 -21 -14 -13
-21 -14 -27 -5 -4 7 -3 10 3 6 6 -4 16 0 23 8 12 14 20 19 20 12z m-1140 -61
l38 -34 -170 -169 c-94 -92 -175 -173 -182 -179 -9 -9 -22 -2 -53 27 l-42 39
182 175 c100 96 183 175 186 175 2 0 21 -15 41 -34z m302 -271 l126 -116 -54
-56 -53 -56 -68 64 c-37 35 -94 90 -128 121 l-60 57 50 51 c27 27 52 50 55 50
3 0 62 -52 132 -115z m-373 -117 c25 -24 70 -63 100 -88 181 -152 260 -224
254 -234 -3 -6 -3 -8 2 -4 12 11 170 -123 170 -145 0 -5 8 -11 19 -13 10 -1
35 -18 55 -36 20 -18 41 -37 46 -42 6 -5 5 -6 -4 -1 -8 4 -17 2 -22 -6 -6 -10
-9 -10 -9 -2 0 9 -12 11 -37 8 -28 -3 -33 -2 -18 4 17 8 17 10 3 10 -19 1 -38
-27 -31 -46 7 -18 -36 -38 -51 -22 -8 9 -8 10 1 5 19 -11 45 4 33 19 -8 9 -7
14 2 17 7 3 -2 5 -20 5 -21 0 -28 -3 -20 -9 7 -4 8 -8 2 -8 -6 0 -21 12 -33
26 -18 21 -20 28 -10 35 8 5 10 9 4 9 -5 0 -16 -4 -23 -8 -9 -7 -8 -13 8 -27
11 -10 20 -22 20 -28 0 -5 -26 13 -57 40 -32 28 -69 58 -82 69 -14 10 -41 33
-60 50 -96 85 -234 206 -301 263 -41 36 -81 70 -88 76 -11 10 -4 23 39 69 30
31 55 56 58 56 2 0 25 -19 50 -42z m-359 -84 c19 -18 82 -74 140 -125 58 -51
105 -98 105 -104 1 -19 23 -50 31 -42 4 4 -1 14 -12 22 -10 8 -14 15 -8 15 6
0 20 -10 32 -22 l21 -23 -75 -3 c-41 -2 -74 1 -74 6 0 11 -51 35 -58 27 -3 -3
-16 5 -29 17 -28 26 -31 16 -3 -12 12 -12 26 -17 37 -13 15 6 16 5 3 -9 -14
-15 -18 -14 -47 14 -18 17 -30 35 -27 39 3 5 -1 7 -8 4 -7 -3 -43 21 -79 53
-37 31 -76 65 -88 75 l-22 17 53 53 c29 29 57 51 63 48 5 -3 25 -19 45 -37z
m1024 -91 c28 -25 130 -122 226 -213 l176 -167 148 144 148 145 54 -53 c30
-29 54 -56 54 -59 0 -4 -46 -48 -102 -100 -57 -51 -149 -137 -205 -191 l-102
-98 -23 27 c-13 15 -49 50 -79 77 -30 28 -146 135 -257 240 l-202 190 52 52
c29 29 54 53 57 53 2 0 27 -21 55 -47z m-884 -183 c0 -5 -5 -10 -11 -10 -5 0
-7 -5 -3 -11 4 -8 9 -7 15 2 4 7 11 10 16 6 4 -5 1 -12 -7 -17 -8 -6 -10 -10
-4 -10 7 0 15 -8 19 -17 4 -12 -4 -8 -24 11 -16 15 -27 35 -24 42 6 16 23 19
23 4z m140 -34 c-7 -7 -13 -7 -20 0 -6 6 -3 10 10 10 13 0 16 -4 10 -10z m65
4 c3 -6 -1 -7 -9 -4 -18 7 -21 14 -7 14 6 0 13 -4 16 -10z m36 -37 c13 -16 12
-17 -3 -4 -17 13 -22 21 -14 21 2 0 10 -8 17 -17z m-30 -10 c13 -16 12 -17 -3
-4 -17 13 -22 21 -14 21 2 0 10 -8 17 -17z m2135 -5 c5 -7 3 -8 -5 -4 -7 5
-21 0 -32 -10 -10 -9 -19 -14 -19 -9 0 9 31 34 42 35 4 0 10 -5 14 -12z m-66
-32 c0 -2 -8 -10 -17 -17 -16 -13 -17 -12 -4 4 13 16 21 21 21 13z m101 -34
c-7 -2 -18 1 -23 6 -8 8 -4 9 13 5 13 -4 18 -8 10 -11z m-1 -36 c0 -3 -4 -8
-10 -11 -5 -3 -10 -1 -10 4 0 6 5 11 10 11 6 0 10 -2 10 -4z m-15 -35 c3 -5 2
-12 -3 -15 -5 -3 -9 1 -9 9 0 17 3 19 12 6z m-1480 -11 c3 -5 1 -10 -4 -10 -6
0 -11 5 -11 10 0 6 2 10 4 10 3 0 8 -4 11 -10z m1445 -24 c0 -2 -8 -10 -17
-17 -16 -13 -17 -12 -4 4 13 16 21 21 21 13z m-1585 -26 c-3 -5 -12 -10 -18
-10 -7 0 -6 4 3 10 19 12 23 12 15 0z m190 -10 c3 -5 1 -10 -4 -10 -6 0 -11 5
-11 10 0 6 2 10 4 10 3 0 8 -4 11 -10z m565 -308 c0 -8 -1 -13 -3 -11 -1 2 -9
12 -16 22 -12 15 -12 17 3 11 9 -3 16 -13 16 -22z m-152 -48 c29 -31 52 -60
50 -64 -6 -15 -107 -120 -115 -119 -4 1 -32 28 -62 60 l-55 60 59 59 c33 33
62 60 65 60 3 0 30 -25 58 -56z m-2001 -987 c65 -41 68 -51 29 -81 -35 -26
-56 -33 -56 -18 0 13 -47 32 -80 32 -16 0 -42 -11 -59 -26 -27 -23 -31 -32
-31 -79 0 -47 4 -56 31 -79 18 -15 43 -26 60 -26 33 0 89 25 89 40 0 18 19 11
52 -19 28 -25 31 -31 18 -45 -21 -26 -91 -63 -130 -70 -59 -10 -133 18 -173
65 -59 68 -68 148 -27 229 53 103 180 138 277 77z m406 22 c89 -24 155 -124
144 -218 -17 -144 -165 -220 -297 -153 -48 26 -91 89 -97 146 -17 151 109 265
250 225z m2484 -14 c28 -14 58 -34 68 -45 17 -18 16 -20 -11 -44 -35 -31 -36
-31 -76 -6 -48 29 -98 26 -130 -7 -34 -37 -42 -66 -28 -108 25 -75 110 -99
169 -49 l31 26 36 -27 36 -27 -29 -30 c-108 -114 -303 -66 -344 84 -24 92 27
199 116 239 55 25 102 23 162 -6z m-2088 -75 l55 -89 53 90 54 89 45 0 44 0 0
-201 c0 -179 -2 -200 -16 -195 -9 3 -29 6 -45 6 l-29 0 -1 103 c0 83 -2 98
-12 83 -52 -82 -90 -136 -96 -136 -3 0 -27 33 -51 73 l-45 72 -2 -70 c-2 -38
-5 -85 -8 -102 -5 -31 -9 -33 -44 -33 -36 0 -39 2 -44 33 -4 24 -2 351 2 365
1 1 20 2 44 2 l42 -1 54 -89z m520 23 c45 -75 69 -109 74 -102 2 2 27 41 56
87 l54 82 43 0 44 0 0 -200 0 -200 -39 0 c-35 0 -39 3 -45 31 -3 17 -6 65 -6
106 l0 75 -40 -58 c-72 -106 -68 -103 -90 -74 -10 14 -31 46 -47 72 -15 26
-31 48 -35 48 -5 0 -8 -45 -8 -100 l0 -100 -29 0 c-63 0 -61 -6 -61 206 l0
194 45 0 c44 0 44 0 84 -67z m699 25 l-3 -43 -45 3 c-25 1 -69 0 -97 -3 -52
-6 -53 -7 -53 -41 l0 -34 90 0 90 0 0 -40 0 -40 -91 0 -90 0 3 -32 3 -33 103
4 102 3 0 -46 0 -46 -150 0 -150 0 0 195 0 195 146 0 145 0 -3 -42z m397 22
c86 -42 107 -153 40 -216 l-36 -34 36 -55 c38 -60 44 -80 19 -71 -9 3 -31 6
-50 6 -31 0 -38 6 -69 55 -32 49 -39 55 -70 55 l-34 0 -3 -57 -3 -58 -45 0
-45 0 -3 198 -2 197 112 0 c91 0 119 -4 153 -20z m785 -175 l0 -195 -51 0 -50
0 2 188 c1 103 4 190 6 195 2 4 24 7 49 7 l44 0 0 -195z m435 18 c100 -234 96
-213 36 -213 -48 0 -50 1 -61 35 l-12 35 -82 0 -83 0 -9 -32 c-9 -31 -12 -33
-62 -36 -29 -2 -52 -1 -52 1 0 10 51 138 90 227 23 52 48 110 56 128 13 31 16
33 59 30 l47 -3 73 -172z m285 27 l0 -150 95 0 95 0 0 -45 0 -45 -140 0 -140
0 0 195 0 195 45 0 45 0 0 -150z m-3286 -506 c17 -17 20 -27 9 -37 -3 -4 -11
0 -17 7 -18 24 -51 24 -51 1 0 -13 10 -22 32 -28 35 -10 52 -49 32 -73 -18
-22 -86 -18 -99 6 -8 16 -8 20 4 20 8 0 18 -4 21 -10 10 -16 45 -12 45 5 0 8
-16 21 -35 29 -43 18 -52 39 -31 71 19 29 66 34 90 9z m149 5 c31 -17 37 -28
37 -75 0 -63 -48 -96 -100 -69 -48 25 -57 91 -19 131 25 26 49 30 82 13z m332
5 c22 -9 5 -34 -22 -34 -24 0 -24 -2 -22 -62 2 -49 0 -63 -12 -63 -10 0 -15
17 -17 66 -3 66 -3 67 -34 73 -17 3 -37 1 -44 -5 -8 -6 -25 -9 -38 -7 -16 3
-27 0 -31 -9 -9 -24 5 -35 36 -28 22 5 29 3 29 -9 0 -12 -10 -16 -35 -16 -32
0 -35 -2 -35 -31 0 -20 -4 -29 -12 -27 -9 3 -14 31 -16 81 l-3 76 121 0 c67 0
127 -2 135 -5z m64 -47 c8 -26 17 -47 21 -47 4 0 13 21 21 48 16 51 45 66 42
22 -2 -38 -51 -142 -65 -138 -11 4 -58 128 -58 156 0 30 25 3 39 -41z m223
-30 c30 -77 30 -113 1 -69 -21 31 -87 31 -104 1 -8 -15 -14 -18 -21 -11 -22
22 50 166 79 160 9 -2 27 -34 45 -81z m170 66 c20 -18 24 -63 6 -81 -9 -9 -9
-18 1 -38 18 -40 4 -42 -30 -6 -36 39 -49 40 -49 7 0 -16 -6 -25 -15 -25 -12
0 -15 16 -15 80 l0 80 42 0 c24 0 49 -7 60 -17z m168 2 c0 -10 -11 -15 -35
-15 -28 0 -35 -4 -35 -20 0 -16 7 -20 31 -20 38 0 35 -24 -4 -28 -39 -5 -33
-30 8 -38 19 -3 35 -10 35 -14 0 -14 -37 -21 -75 -14 l-35 6 0 79 0 79 55 0
c42 0 55 -3 55 -15z m213 -5 c31 -25 43 -70 26 -102 -17 -32 -28 -38 -79 -38
l-45 0 1 73 c1 39 2 75 2 80 4 15 70 6 95 -13z m177 5 c0 -11 -11 -15 -40 -15
-22 0 -40 -2 -40 -4 0 -22 17 -36 41 -36 38 0 37 -17 -1 -25 -20 -4 -30 -13
-30 -25 0 -16 6 -18 35 -13 28 4 35 2 35 -11 0 -13 -11 -16 -53 -16 l-53 0 1
73 c1 39 3 75 3 80 1 4 25 7 52 7 38 0 50 -4 50 -15z m85 -35 c9 -27 20 -50
25 -50 4 0 14 23 21 50 7 28 19 50 26 50 19 0 16 -26 -9 -98 -32 -87 -51 -83
-88 21 -25 70 -26 77 -9 77 12 0 22 -15 34 -50z m225 36 c0 -9 -12 -16 -32
-18 -34 -3 -52 -28 -21 -28 19 0 43 -18 43 -32 0 -4 -11 -8 -25 -8 -18 0 -25
-5 -25 -20 0 -17 7 -20 40 -20 22 0 40 -4 40 -10 0 -6 -27 -10 -60 -10 l-60 0
0 80 0 80 50 0 c37 0 50 -4 50 -14z m150 -6 c11 -11 20 -31 20 -44 0 -20 -8
-27 -42 -38 -35 -12 -44 -20 -46 -41 -2 -15 -7 -27 -12 -27 -14 0 -20 30 -20
101 l0 69 40 0 c27 0 47 -7 60 -20z m90 1 c16 -30 41 -52 51 -45 6 3 14 17 19
30 6 15 18 24 30 24 19 0 21 -5 18 -75 -2 -44 -7 -74 -13 -73 -5 2 -10 17 -10
35 0 40 -10 50 -25 24 -15 -30 -48 -27 -63 6 -12 27 -12 27 -17 -21 -3 -27
-11 -51 -17 -54 -10 -3 -13 17 -13 76 0 43 3 82 7 85 11 12 22 8 33 -12z m260
1 c0 -13 -8 -17 -32 -17 -23 0 -34 -5 -36 -17 -3 -14 3 -18 27 -18 40 0 40
-19 1 -27 -46 -9 -36 -38 13 -37 25 1 37 -3 37 -12 0 -10 -15 -14 -55 -14
l-55 0 0 80 0 80 50 0 c41 0 50 -3 50 -18z m94 -8 c11 -15 29 -41 39 -58 l17
-31 0 58 c0 44 3 57 15 57 12 0 15 -16 15 -80 0 -95 -8 -100 -62 -38 l-37 43
-1 -47 c0 -36 -4 -48 -15 -48 -12 0 -15 16 -15 85 0 92 8 103 44 59z m226 11
c0 -8 -9 -15 -20 -15 -18 0 -20 -7 -20 -71 0 -52 -3 -70 -12 -67 -8 3 -14 29
-16 71 -3 63 -4 67 -26 67 -13 0 -26 7 -30 15 -4 12 6 15 59 15 51 0 65 -3 65
-15z"/>
<path d="M5136 8761 c-24 -26 -17 -62 15 -80 24 -13 29 -13 53 2 33 22 34 60
4 81 -30 21 -51 20 -72 -3z"/>
<path d="M2958 7609 c-38 -21 -11 -89 34 -89 45 0 68 50 38 80 -22 22 -46 25
-72 9z"/>
<path d="M7191 7564 c-12 -15 -21 -30 -21 -34 0 -17 43 -60 61 -60 25 0 59 35
59 60 0 25 -34 60 -59 60 -11 0 -29 -12 -40 -26z"/>
<path d="M4433 5145 c0 -8 4 -12 9 -9 5 3 6 10 3 15 -9 13 -12 11 -12 -6z"/>
<path d="M4340 5096 c0 -2 7 -9 15 -16 9 -7 15 -8 15 -2 0 5 -7 12 -15 16 -8
3 -15 4 -15 2z"/>
<path d="M4480 5090 c0 -6 7 -10 15 -10 8 0 15 2 15 4 0 2 -7 6 -15 10 -8 3
-15 1 -15 -4z"/>
<path d="M4414 5029 c-3 -6 5 -19 17 -30 22 -19 24 -19 36 -2 7 9 12 21 10 27
-4 13 -55 17 -63 5z m56 -11 c0 -16 -23 -19 -37 -5 -14 13 -13 15 11 14 14 -1
26 -5 26 -9z"/>
<path d="M7236 5751 c-3 -4 4 -17 17 -27 22 -19 22 -19 4 2 -9 11 -14 24 -10
27 3 4 4 7 0 7 -3 0 -8 -4 -11 -9z"/>
<path d="M7446 5507 c3 -10 9 -15 12 -12 3 3 0 11 -7 18 -10 9 -11 8 -5 -6z"/>
<path d="M7470 5486 c0 -4 7 -14 15 -22 8 -9 15 -11 15 -6 0 5 -7 15 -15 22
-8 7 -15 9 -15 6z"/>
<path d="M7684 5397 c1 -24 5 -33 18 -33 16 0 16 2 2 18 -9 9 -13 21 -10 27 4
5 3 12 -2 15 -5 3 -8 -10 -8 -27z"/>
<path d="M7555 5400 c3 -5 8 -10 11 -10 2 0 4 5 4 10 0 6 -5 10 -11 10 -5 0
-7 -4 -4 -10z"/>
<path d="M7586 5355 c13 -20 19 -23 30 -14 18 15 18 23 -1 15 -9 -3 -18 1 -21
9 -4 8 -10 15 -15 15 -5 0 -2 -11 7 -25z"/>
<path d="M7634 5343 c-9 -14 -8 -23 4 -40 17 -27 27 -29 28 -5 1 9 5 26 9 37
7 16 4 15 -13 -5 -15 -18 -21 -21 -22 -9 0 8 5 20 12 27 7 7 8 12 2 12 -5 0
-14 -8 -20 -17z"/>
<path d="M5800 5406 c0 -2 8 -10 18 -17 15 -13 16 -12 3 4 -13 16 -21 21 -21
13z"/>
<path d="M5620 5236 c0 -2 8 -10 18 -17 15 -13 16 -12 3 4 -13 16 -21 21 -21
13z"/>
<path d="M5442 5064 c-7 -8 -8 -14 -3 -14 10 0 25 19 20 25 -2 1 -10 -3 -17
-11z"/>
<path d="M4760 5053 c0 -6 8 -17 18 -24 16 -13 16 -13 2 6 -8 11 -16 22 -17
24 -2 2 -3 0 -3 -6z"/>
<path d="M4820 5006 c0 -2 8 -10 18 -17 15 -13 16 -12 3 4 -13 16 -21 21 -21
13z"/>
<path d="M4966 4983 c-3 -3 -6 -11 -6 -17 0 -6 5 -4 10 4 9 13 11 13 20 0 8
-12 10 -12 10 -1 0 11 3 11 18 0 14 -11 15 -11 5 1 -14 15 -47 23 -57 13z"/>
<path d="M4870 4951 c0 -6 4 -13 10 -16 6 -3 7 1 4 9 -7 18 -14 21 -14 7z"/>
<path d="M6022 5171 c2 -7 7 -12 11 -12 12 1 9 15 -3 20 -7 2 -11 -2 -8 -8z"/>
<path d="M6085 5160 c-3 -6 1 -7 9 -4 18 7 21 14 7 14 -6 0 -13 -4 -16 -10z"/>
<path d="M5994 5112 c0 -10 6 -19 13 -19 8 0 9 6 2 19 -5 10 -11 18 -12 18 -2
0 -3 -8 -3 -18z"/>
<path d="M5878 5033 c7 -3 16 -2 19 1 4 3 -2 6 -13 5 -11 0 -14 -3 -6 -6z"/>
<path d="M5130 5591 c-17 -32 -12 -69 11 -81 52 -28 106 28 74 76 -20 30 -70
33 -85 5z"/>
<path d="M5420 3561 c13 -9 13 -12 -3 -23 -18 -13 -18 -14 1 -14 23 0 25 37 2
43 -13 4 -13 3 0 -6z"/>
<path d="M5355 3540 c-17 -19 -17 -20 0 -20 10 0 15 3 12 7 -4 3 -2 12 4 20
18 21 4 15 -16 -7z"/>
<path d="M5310 3490 c-14 -11 -20 -20 -14 -20 14 0 50 27 44 33 -3 3 -16 -3
-30 -13z"/>
<path d="M5430 3435 c-13 -14 -19 -25 -14 -25 8 1 50 50 41 50 -2 0 -14 -11
-27 -25z"/>
<path d="M5393 3433 c-15 -5 -17 -23 -4 -23 5 0 11 7 15 15 3 8 4 15 3 14 -1
0 -8 -3 -14 -6z"/>
<path d="M6265 3940 c-3 -6 1 -7 9 -4 18 7 21 14 7 14 -6 0 -13 -4 -16 -10z"/>
<path d="M6340 3861 c0 -6 5 -13 10 -16 6 -3 10 1 10 9 0 9 -4 16 -10 16 -5 0
-10 -4 -10 -9z"/>
<path d="M4490 3966 c0 -2 8 -10 18 -17 15 -13 16 -12 3 4 -13 16 -21 21 -21
13z"/>
<path d="M4660 3814 c0 -9 32 -33 44 -34 5 0 -1 9 -14 20 -25 21 -30 24 -30
14z"/>
<path d="M3890 4106 c0 -2 8 -10 18 -17 15 -13 16 -12 3 4 -13 16 -21 21 -21
13z"/>
<path d="M3934 4049 c-17 -24 -10 -42 18 -45 17 -1 29 3 33 14 3 9 3 13 -1 10
-3 -4 -14 2 -23 13 -14 17 -19 19 -27 8z m25 -17 c7 -14 6 -18 -9 -18 -15 0
-18 10 -11 34 2 7 11 0 20 -16z"/>
<path d="M3533 2255 c-32 -23 -48 -79 -34 -125 33 -110 191 -82 191 35 0 34
-25 82 -49 95 -28 15 -83 12 -108 -5z"/>
<path d="M5489 2250 c-1 -11 -1 -29 -1 -40 0 -11 0 -25 1 -30 1 -7 25 -10 63
-8 55 3 64 6 75 28 10 20 10 29 -1 45 -11 16 -26 21 -75 23 -55 3 -61 1 -62
-18z"/>
<path d="M6746 2220 c-3 -8 -12 -34 -20 -57 l-15 -43 44 0 44 0 -14 40 c-8 22
-19 48 -24 58 -8 14 -10 15 -15 2z"/>
<path d="M3962 1678 c-7 -7 -12 -27 -12 -45 0 -38 23 -55 58 -42 40 15 26 99
-18 99 -9 0 -21 -5 -28 -12z"/>
<path d="M4580 1658 c0 -23 5 -38 16 -42 13 -5 14 -1 9 27 -10 48 -25 57 -25
15z"/>
<path d="M4740 1665 c0 -23 4 -26 28 -23 19 2 27 9 27 23 0 14 -8 21 -27 23
-24 3 -28 0 -28 -23z"/>
<path d="M5130 1635 c0 -46 3 -55 18 -55 30 0 45 17 45 49 0 36 -18 61 -44 61
-16 0 -19 -8 -19 -55z"/>
<path d="M5755 1689 c-4 -5 -3 -18 0 -30 9 -26 50 -22 50 5 0 21 -41 41 -50
25z"/>
</g>
</svg>
