<svg width="665" height="581" viewBox="0 0 665 581" fill="none" xmlns="http://www.w3.org/2000/svg">
<g clip-path="url(#clip0_5483_31473)">
<mask id="mask0_5483_31473" style="mask-type:alpha" maskUnits="userSpaceOnUse" x="-250" y="-194" width="2202" height="2167">
<path fill-rule="evenodd" clip-rule="evenodd" d="M1687.23 1872.67L786.487 1972.89L638.429 1832.62L1486.2 1630.22L1752.57 1033.86L1350.4 463.464L881.891 903.874L881.892 903.875L881.881 903.884L533.48 1151.06L357.776 957.884L662.579 639.391L662.578 639.389L662.589 639.381L1399.09 149.139L1951.92 1006.57L1687.23 1872.66L1687.24 1872.67L1687.23 1872.67L1687.23 1872.67L1687.23 1872.67ZM490.781 1692.02L-249.232 989.784L260.583 154.559L260.521 154.483L260.662 154.429L260.74 154.302L260.801 154.377L1177.85 -193.469L1288.39 -21.4205L461.557 396.932L40.3386 948.495L525.99 1447.62L1082.91 1146.33L1348.05 814.52L1505.18 1022.76L1283.95 1388.78L1283.95 1388.78L1283.94 1388.78L1283.94 1388.79L1283.94 1388.79L490.781 1692.02Z" fill="#D9D9D9"></path>
</mask>
<g mask="url(#mask0_5483_31473)">
<circle opacity="0.38" cx="285" cy="294" r="190" fill="#127AFF" filter="url(#f2)"></circle>
</g>
<g filter="url(#filter0_b_5483_31473)">
<path d="M1486.21 1630.21L1687.24 1872.67L786.487 1972.88L638.429 1832.62L1486.21 1630.21ZM-249.232 989.784L490.78 1692.02L1283.95 1388.78L1082.92 1146.33L525.989 1447.62L40.3384 948.494L461.56 396.927L260.74 154.302L-249.232 989.784ZM662.588 639.38L881.892 903.875L533.479 1151.06L357.775 957.883L662.588 639.38Z" fill="url(#paint0_linear_5483_31473)" fill-opacity="0.5"></path>
</g>
<g filter="url(#filter1_b_5483_31473)">
<path d="M1951.92 1006.57L1687.23 1872.67L1486.2 1630.22L1752.57 1033.86L1350.4 463.463L881.881 903.883L662.577 639.389L1399.09 149.139L1951.92 1006.57ZM1288.39 -21.4212L1177.85 -193.47L260.521 154.482L461.549 396.936L1288.39 -21.4212ZM1505.18 1022.76L1348.05 814.52L1082.91 1146.34L1283.94 1388.79L1505.18 1022.76Z" fill="url(#paint1_linear_5483_31473)" fill-opacity="0.5"></path>
</g>
</g>
<defs>
    <filter id="f2" x="-50%" y="-50%" width="200%" height="200%">
        <feGaussianBlur in="SourceGraphic" stdDeviation="80"></feGaussianBlur>
    </filter>
<filter id="filter0_b_5483_31473" x="-409.232" y="-5.69824" width="2256.47" height="2138.58" filterUnits="userSpaceOnUse" color-interpolation-filters="sRGB">
<feFlood flood-opacity="0" result="BackgroundImageFix"></feFlood>
<feGaussianBlur in="BackgroundImageFix" stdDeviation="80"></feGaussianBlur>
<feComposite in2="SourceAlpha" operator="in" result="effect1_backgroundBlur_5483_31473"></feComposite>
<feBlend mode="normal" in="SourceGraphic" in2="effect1_backgroundBlur_5483_31473" result="shape"></feBlend>
</filter>
<filter id="filter1_b_5483_31473" x="100.521" y="-353.47" width="2011.4" height="2386.14" filterUnits="userSpaceOnUse" color-interpolation-filters="sRGB">
<feFlood flood-opacity="0" result="BackgroundImageFix"></feFlood>
<feGaussianBlur in="BackgroundImageFix" stdDeviation="80"></feGaussianBlur>
<feComposite in2="SourceAlpha" operator="in" result="effect1_backgroundBlur_5483_31473"></feComposite>
<feBlend mode="normal" in="SourceGraphic" in2="effect1_backgroundBlur_5483_31473" result="shape"></feBlend>
</filter>
<linearGradient id="paint0_linear_5483_31473" x1="425.788" y1="351.7" x2="-111.675" y2="1095.88" gradientUnits="userSpaceOnUse">
<stop stop-color="#398CF6" stop-opacity="0.04"></stop>
<stop offset="1" stop-color="#398CF6" stop-opacity="0.16"></stop>
</linearGradient>
<linearGradient id="paint1_linear_5483_31473" x1="1227.05" y1="-134.13" x2="224.974" y2="298.779" gradientUnits="userSpaceOnUse">
<stop stop-color="#398CF6" stop-opacity="0.04"></stop>
<stop offset="0.989349" stop-color="white" stop-opacity="0.12"></stop>
<stop offset="0.989449" stop-color="#398CF6" stop-opacity="0.24"></stop>
</linearGradient>
<clipPath id="clip0_5483_31473">
<rect width="665" height="581" fill="white"></rect>
</clipPath>
</defs>
</svg>